<?xml version="1.0" encoding="UTF-8"?>
<svg version="1.1" viewBox="0 0 2000 2000" width="500" height="500" xmlns="http://www.w3.org/2000/svg">
<path transform="translate(734,622)" d="m0 0h17l22 2 25 5 20 6 21 8 26 12 27 14 13 8 22 14 5-2 20-13 14-8 22-12 28-13 27-10 24-6 23-4h34l19 4 12 4 15 9 10 9 20 20 10 14 5 11 3 12 1 17-2 16-4 18-8 23-15 33-13 25-7 14-10 18-8 13-11 17-1 3 11 18 13 22 11 20 12 26 10 27 8 31 1 6 1-2v-15l2 3 5 23 1 9v25l-3 14-6 13-8 12-14 18-7 7-13 9-17 8-16 4-17 2h-13l-21-2-19-4-29-9-29-12-25-12-16-9-13-8-16-10-4-3-5 2-14 9-20 12-20 11-26 12-23 9-34 10-20 3-13 1h-12l-19-2-14-4-16-7-11-8-10-9-8-8-12-7-10-9-8-10-7-13-3-13-1-14 2-19 5-21 7-20 14-29 10-18 11-17 11-16 12-16 11-14 8-10-4-7-6-9-12-20-12-22-11-24-11-29-7-28-4-22v-28l3-16 6-18 6-11 9-12 11-11 14-10 14-6 15-3zm9 65-12 2-10 6-6 9-2 8v24l3 18 11 33 14 30 12 22 5 7 4-2 9-10 7-9 7-7 7-8 15-16 20-20 8-7 8-8 8-7 13-11 7-6-2-4-22-12-17-9-16-7-16-6-23-7-20-3zm361 0-18 2-16 4-29 10-29 14-23 13-5 3 6 7 13 11 13 12 12 11 11 10 5 5 14 15 11 11 7 8 9 10 7 8 5 6 3-4 16-28 12-26 10-28 4-19 1-9v-19l-3-12-6-8-7-4-14-3zm-177 86-14 11-14 12-13 12-8 7-7 6v2l-4 2-16 16-7 8-11 11-7 8-9 10-18 22-2 3 8 9 7 9 12 14 9 10 11 12 37 37 8 7 14 12 13 11 11 9 4-2 13-11 11-9 12-11 8-7 16-15 22-22 7-8 14-15 18-22 6-7-1-4-8-9-9-11-12-14-7-7-7-8-40-40-8-7-12-11-22-18zm169 186-9 10-9 11-15 16-11 12-27 27-8 7-14 13-8 6v2l-4 2-7 5 4 4 21 11 27 11 18 7 34 9 16 3 17 1 10-3 7-6 4-10 1-6v-19l-4-24-5-15-8-21-14-29-13-23zm-339 1-8 14-15 29-7 16-9 25-4 18-1 8v23l3 11 7 8 6 3 8 2h25l25-5 17-6 22-9 16-8 26-14 4-3v-2l-11-8-15-14-8-7-10-9-10-10-8-7-9-10-9-9-7-8-11-12-9-11-4-5z" fill="#FDFDFD"/>
<path transform="translate(750,891)" d="m0 0 4 2 11 14 8 10 11 13 9 11 7 7v2h2l7 8 39 39 8 7 11 10 11 9 11 10 11 9 16 13 12 9v2l-30 20 11-6 20-12 7 1 20 14 17 11 17 10 26 14 27 13 34 13 33 8 14 2h24l19-3 10-3 11-6 5-5 3-1-2 4-10 13-7 7-13 9-17 8-16 4-17 2h-13l-21-2-19-4-29-9-29-12-25-12-16-9-13-8-16-10-4-3-5 2-14 9-20 12-20 11-26 12-23 9-34 10-20 3-13 1h-12l-19-2-14-4-16-7-11-8-10-9-6-6 1-2 24 4 22 1 8-1-2-2-17-4-13-7-10-9-6-7-6-12-3-14-1-9v-11l3-23 7-26 10-25 12-25 8-15 13-21 13-19 10-14zm7 69-8 14-15 29-7 16-9 25-4 18-1 8v23l3 11 7 8 6 3 8 2h25l25-5 17-6 22-9 16-8 26-14 4-3v-2l-11-8-15-14-8-7-10-9-10-10-8-7-9-10-9-9-7-8-11-12-9-11-4-5z" fill="#020202"/>
<path transform="translate(563,744)" d="m0 0 3 1v73l-10 5-25 9-30 11-24 9-18 7-26 9-27 10-19 7-8 2v2l11 3 28 10 44 16 27 10 36 13 30 11 10 4 1 1v74l-9-3-24-9-20-8-21-8-65-25-31-12-21-8-52-20-31-12-2-3v-71l3-3 25-10 34-13 41-16 36-14 24-9 15-6 21-8 18-7 26-10 28-11z" fill="#020202"/>
<path transform="translate(927,724)" d="m0 0 4 1 14 8 16 11 27 18 16 12 14 11 11 9 15 13 11 9 13 12 25 25 8 7 11 12 2 2v5l-10 13-14 19-11 13-9 11-11 12-7 8-15 16-25 25-8 7-14 13-11 9-10 9-14 11-8 6-5-2-11-6-17-11-23-16-14-10-20-16-14-11-15-13-20-18-12-12-8-7-6-6v-2h-2l-7-8-11-12-9-11 1-4 11-14 11-12 9-11 11-11 1-2h2l2-4 29-29 8-7 15-14 11-9 10-9 28-22 18-13zm0 49-14 11-14 12-13 12-8 7-7 6v2l-4 2-16 16-7 8-11 11-7 8-9 10-18 22-2 3 8 9 7 9 12 14 9 10 11 12 37 37 8 7 14 12 13 11 11 9 4-2 13-11 11-9 12-11 8-7 16-15 22-22 7-8 14-15 18-22 6-7-1-4-8-9-9-11-12-14-7-7-7-8-40-40-8-7-12-11-22-18z" fill="#020202"/>
<path transform="translate(755,623)" d="m0 0h11l23 4 20 5 30 11 26 12 27 14 13 8 22 14 5-2 20-13 14-8 22-12 28-13 27-10 24-6 23-4h34l19 4 12 4 15 9 10 9 5 5 4 5-6-1-19-6-10-2-11-1h-17l-12 1 14 2 15 5 11 6 9 8 7 10 5 11 3 12v31l-5 25-5 17-10 25-10 21-13 23-13 21-5 6-5-4-11-14-11-12-9-11-12-13-30-30-3-2v-2l-4-2-9-9-8-7-11-10-11-9-16-13-18-14-12-9-30-20-14-9-23-13-23-12-29-14-21-8-21-6-31-6zm349 64-18 2-16 4-29 10-29 14-23 13-5 3 6 7 13 11 13 12 12 11 11 10 5 5 14 15 11 11 7 8 9 10 7 8 5 6 3-4 16-28 12-26 10-28 4-19 1-9v-19l-3-12-6-8-7-4-14-3z" fill="#040404"/>
<path transform="translate(1390,795)" d="m0 0 5 1 32 12 31 12 41 16 37 14 64 25 1 1v57l-5 3-62 24-86 33-47 18-8 3h-3v-56l5-3 23-8 19-7 30-11 55-20 5-2h5l-3-3-20-8-44-16-63-23-12-6z" fill="#010101"/>
<path transform="translate(682,642)" d="m0 0 2 1-10 14-5 12-3 15v28l3 19 1 3 1-16 3-14 4-10 7-10 4-5 10-7 16-7 13-3 8-1h13l22 2 24 4 22 6 29 10 26 11 34 17 18 10 1 2-14 8-26 17-16 11-18 14-14 11-13 11-10 8-10 9-8 7-10 9-8 7-10 9-16 15-10 10-7 8-7 7-9 11-3 3h-2l-7-10-15-25-12-22-11-24-11-29-7-28-4-22v-28l3-16 6-18 6-11 9-12zm61 45-12 2-10 6-6 9-2 8v24l3 18 11 33 14 30 12 22 5 7 4-2 9-10 7-9 7-7 7-8 15-16 20-20 8-7 8-8 8-7 13-11 7-6-2-4-22-12-17-9-16-7-16-6-23-7-20-3z" fill="#030303"/>
<path transform="translate(1182,824)" d="m0 0 1 3-12 23-11 20-8 13-11 17-1 3 11 18 13 22 11 20 12 26 10 27 8 31 2 11v8l-4 16-6 10-8 9-11 7-15 6-15 3h-20l-4-2 10-5 4-5 3-8 1-6v-19l-4-24-5-15-8-21-14-29-12-21v-2l-4 1-9 11-12 13-7 8-15 16-27 27-8 7-14 13-6 5h-2v2l-10 7v2l-5-1-17-9-11-7 1-3 16-10 13-10 20-15 15-12 14-11 14-12 10-9 8-7 15-14 18-18 7-8 7-7 7-8 9-10 3-5 3-1 1 1 1-5 14-17 11-15 11-16 4-5 6-11z" fill="#020202"/>
<path transform="translate(1315,713)" d="m0 0h46l1 4-20 100-5 24-23 115-11 54-3 17-1 2h-49l1-8 10-51 6-29 7-34 8-40 9-44 15-74 7-34z" fill="#010101"/>
<path transform="translate(1195,1231)" d="m0 0 8 1 6 8 16 48 2-2 12-30-8-24 1-1h7l5 3 8 11 2 9 3 9 8 21v4h2l1-5 16-47 2-4 4-1 7 2 3 4-1 5-7 19-2 6-6 15-6 16-5 14-4 6h-3l-5-8-10-25-1-5h-2l-1 6-5 2-5 13-5 11-1 5-4 1-1-2-1 2h-2l-8-19-17-45-8-19v-3z" fill="#040404"/>
<path transform="translate(681,1231)" d="m0 0h27l11 3 8 6 8 7 2 5-1 8h-2v5l-3 3-2 5-5 1 8 7 8 8-1 11-5 10-9 8-9 2-9 1h-16l-4-3-6-3-1-1v-82zm25 13-8 2 2 1-2 5v14l-3 1 4 1h9l6-3 3-4 1-8-2-5-5-3zm-9 3m38 6m-14 19m-22 10v10h-1l-1 9 4 4h10l6-3 5-6v-7l-5-5-4-2z" fill="#010101"/>
<path transform="translate(787,1230)" d="m0 0h8l10 2 12 6 12 11 8 11 3 12-1 12-5 13-6 9h-2l-2 4-5 2v2l-8 4-11 3h-9l-9-2-15-8-11-11-6-12-2-8v-13l4-13 7-10 8-7 10-5zm4 15-8 2-9 5-6 8-3 6-1 10 1 11 3 7 7 7 8 4 5 1h8l11-4 7-5 7-11 2-10-1-12-4-8-4-5-8-5-9-1z" fill="#030303"/>
<path transform="translate(993,1230)" d="m0 0h9l9 2 12 6 12 11 7 10 3 13v11l-5 14-5 8h-2v2l-12 9-10 4-14 1-12-3-13-8-5-4-8-11-4-10-1-4v-16l5-13 8-10 11-8 8-3zm3 15-9 3-8 6-6 7-3 9v13l4 11 7 7 8 4 5 1h8l11-4 10-9 4-8 2-10-1-11-4-8-8-8-4-2-7-1z" fill="#030303"/>
<path transform="translate(603,1231)" d="m0 0h27l9 2 8 4 9 9 4 5v11l-4 14-5 9-3 2 2 4 7 10 10 17 3 5-10-2-9-6-8-9-10-15-3-3h-2l-2 2-4-2-3 24 1 9-5 1-12-8zm31 14-12 1-1 8v15l1 4 2 1 10-1 6-4 4-7v-8l-3-5-5-4z" fill="#020202"/>
<path transform="translate(923,870)" d="m0 0h9l10 3 9 6 6 9 3 9v12l-4 11-6 8-14 7-11 1-13-4-9-7-5-9-2-6v-14l4-11 7-8 8-5z" fill="#020202"/>
<path transform="translate(1475,1231)" d="m0 0h54l9 12-1 2-10-1v1l-28 1-6 1v16l-4 2v2l36 1 4 8 4 4-9 1v1h-13l-4-1-2 1-12 1v16l-2 4 4 1 36 1 4 8 4 2v3h2l-1 3h-56l-4-4-5-2-1-3zm19 12v1h8v-1zm10 0m4 0v1h15v-1z" fill="#030303"/>
<path transform="translate(1398,1231)" d="m0 0h25l12 3 7 4 6 5 5 6v2h2l-1 7-1 3v6l-4 10-5 9-3 1 12 17 9 15v2l3 1-3 1-8-2-7-4-9-10-12-17-4-3-7 1-1 2-2 3v24l1 3 5 2-4 1-7-2-10-7v-82zm26 13v1l-10 1-2 3-1 18v5l7 2 10-1 6-4 3-4 1-3v-8l-3-6-8-4z" fill="#030303"/>
<path transform="translate(548,1229)" d="m0 0 4 1 7 12 2 1 5 13 3 8 6 13 5 14 5 10 7 18 1 3h-7l-9-6-4-5-7-13-31 1-1 5-5 13 1 5-5-1-12-7 10-24 18-43 6-15zm11 15m-7 17-2 10-6 12 3 1h14l-1-6-7-17zm-7 4 1 2zm-1 2m0 2m-1 1m-4 11v2l3-1z" fill="#040404"/>
<path transform="translate(1343,1229)" d="m0 0 4 2 8 11 4 11 1 3 11 26 5 13 6 15 5 10 2 1v2l-9-1-9-6-4-5-6-12-8-1-22 1-2 4h-2l-1 6-3 11v3l-14-7-1-5 10-23 16-39 8-19zm0 27-1 4 2 4-1 9-4 8-4 1 2-6 5-12-1-3-4 8-5 12v2l9 1h15l-6-16-6-12zm-2 13 1 2z" fill="#050505"/>
<path transform="translate(1059,1231)" d="m0 0h50l2 6 5 2 2 2-1 3-6 1-3 1-30 1-1 20 1 1 26 1 4 8 4 1 2 7h-15l-19-1v-2h-3l1 3-1 12v25l-5-1-12-6-1-1z" fill="#010101"/>
<path transform="translate(470,1230)" d="m0 0h11l13 3 8 6 8 8h-3l-7-4 5 8-2 1-13-5-3-1h-12l-8 3-6 4-7 8-3 9v14l3 9 6 7 8 4 4 1h11l13-5 9 9-2 4-6 5-17 3-13-2-13-7-10-9-5-7-5-14v-17l4-12 6-9 9-8 11-5z" fill="#040404"/>
<path transform="translate(907,1231)" d="m0 0h16l13 4 6 5 5 7-1 2-6-6 2 5 1 3-10-3-5-2h-13l-6 3-3 5 1 2-2 1v2l9 6 14 6 9 7 4 5v2l3 1v15l-4 9-5 5-6 4-15 2-11-2-13-7-5-4 1-4 3-4 5 1 10 4 10 1 9-3 4-5 1-7-3-5-16-8-11-7-7-8-2-6v-9l4-8 8-7z" fill="#040404"/>
<path transform="translate(1122,1231)" d="m0 0h56l3 5 6 7-2 1-7-1v2l-3 1-14 1 1 11v19l-1 16v11l1 7h1v11l-6-1-8-4-5-2v-69l-4 1v-2l-8-1-1 2-5-3-4-4-1-7z" fill="#030303"/>
<path transform="translate(1182,824)" d="m0 0 1 3-12 23-11 20-8 13-11 17-1 3 2 5-4-3-4-8-1-5 11-13 13-17 13-19 4-5 6-11z" fill="#181818"/>
<path transform="translate(1185,1241)" d="m0 0 2 3-9-1v2l-3 1-14 1 1 11v19l-1 16v11l1 7h1v11l-6-1-1-5v-73l20-1z" fill="#787878"/>
<path transform="translate(833,1256)" d="m0 0 4 4 3 12-1 12-5 13-6 9h-2l-2 4-5 2v2l-8 4-11 3h-9l-9-2-2-2 12 1 16-4 12-7 8-11 5-11 1-4v-18z" fill="#787878"/>
<path transform="translate(735,1285)" d="m0 0 5 4-1 11-5 10-9 8-9 2-9 1h-16l-2-4 24-2 12-5 6-8 3-11z" fill="#787878"/>
<path transform="translate(1040,1258)" d="m0 0 2 1 3 13v11l-5 14-5 8h-2v2l-12 9-10 4-14 1-12-3 4-1 7 1 17-3 13-8 6-7 6-12 2-9z" fill="#787878"/>
<path transform="translate(1297,1235)" d="m0 0 3 1v5l-4 9-4 11-2 6-6 15-6 16-5 14-4 6h-1l1-8 10-29 17-44z" fill="#787878"/>
<path transform="translate(1112,1280)" d="m0 0 2 3v2h-15l-19-1v-2h-3l1 3-1 12v25h-3l-3-7-1-34z" fill="#787878"/>
<path transform="translate(784,1242)" d="m0 0h15l7 3v1h-15l-8 2-8 4-5 7-2 1-3 11v8l2 13-4-4-3-8v-13l3-9 9-10 8-5z" fill="#787878"/>
<path transform="translate(992,1242)" d="m0 0h12l7 3v1h-15l-9 3-8 6-5 6-3 9v13l2 9-4-4-2-6v-18l5-10 10-9z" fill="#787878"/>
<path transform="translate(472,1242)" d="m0 0h12l7 3-2 2-2-1h-12l-8 3-6 4-7 8-3 9v14l2 9-3-3-2-4-1-6v-14l3-9 7-8 5-4z" fill="#787878"/>
<path transform="translate(1117,1241)" d="m0 0v3l-6 1-3 1-30 1-1 20 1 2h-6l-1-1v-25l39-1z" fill="#787878"/>
<path transform="translate(1352,1293)" d="m0 0h6l3 3-1 3-7-1-22 1-2 4h-2l-1 6-3 11v3l-3-2-2-5 2-8 5-12 2-2z" fill="#787878"/>
<path transform="translate(534,1294)" d="m0 0h32l1 4-32 1-1 5-5 13 1 5-5-1-2-1 1-7 8-18z" fill="#787878"/>
<path transform="translate(1244,1271)" d="m0 0h2l4 8-2 1-1 6-5 2-5 13-5 11-1 5-4 1-1-5 8-19 9-21z" fill="#787878"/>
<path transform="translate(615,1243)" d="m0 0h17l3 2-1 1h-12v27l2 1h-7l-2-1z" fill="#787878"/>
<path transform="translate(941,1285)" d="m0 0 3 1v15l-4 9-5 5-6 4-15 2-11-2-4-3 8 1h9l9-2 8-5 5-7 2-7z" fill="#787878"/>
<path transform="translate(729,1243)" d="m0 0 4 2 3 4 1 8-1 3h-2v5l-3 3-2 5h-9v-3l3-3h2l2-5 2-8z" fill="#787878"/>
<path transform="translate(692,1280)" d="m0 0h10l9 1v1l-11 1v13l-2 4 1 4 10 1v1h-12l-4-2-1-6z" fill="#787878"/>
<path transform="translate(615,1285)" d="m0 0 14 1-3 4-4-2-3 24 1 9-5 1-2-2 2-1z" fill="#787878"/>
<path transform="translate(549,1255)" d="m0 0h2l2 6-2 10-5 10-1 1 2 2h-7l-1-1-1-3 5-12 2-1 1-7z" fill="#777"/>
<path transform="translate(1482,1317)" d="m0 0h57l2 1-1 3h-56z" fill="#787878"/>
<path transform="translate(1487,1243)" d="m0 0h38l2 2-28 1-6 1v16l-4 2v2l4 1h-5l-1-1z" fill="#787878"/>
<path transform="translate(656,1248)" d="m0 0 4 3v11l-4 14-5 9-5 3-3-3v-2l5-5 6-12 1-3z" fill="#787878"/>
<path transform="translate(1450,1247)" d="m0 0 3 2v2h2l-1 7-1 3v6l-4 10-5 9-6-1-1-3 3-1 6-11 3-9z" fill="#787878"/>
<path transform="translate(693,1243)" d="m0 0h13v2l-6 2-1 5-1 14 1 2h-5l-2-2v-22z" fill="#787878"/>
<path transform="translate(1487,1280)" d="m0 0 18 1v1l-12 1v16l-2 4 4 2h-7l-1-4z" fill="#787878"/>
<path transform="translate(912,1241)" d="m0 0 14 2 2 2-13 1-6 3-3 5 1 2-5 1-1-1v-8l2-4z" fill="#787878"/>
<path transform="translate(558,1242)" d="m0 0 3 1 5 13 3 8 6 13 5 14 5 10 4 10-1 2-8-16-10-24-12-28z" fill="#787878"/>
<path transform="translate(1410,1243)" d="m0 0h15l1 3-12 1-1 2-1 18v5l6 1v1h-8l-1-1v-27z" fill="#787878"/>
<path transform="translate(502,1308)" d="m0 0 3 1-2 4-6 5-17 3-13-2-2-2h16l10-1v-2l10-3z" fill="#787878"/>
<path transform="translate(1409,1285)" d="m0 0h7l2 2-3 1-1 2-2 3v24l1 3 5 2-4 1-5-2z" fill="#787878"/>
<path transform="translate(714,1145)" d="m0 0 12 1 12 3v2l-18 1h-18l-11-1v-1h22l8-1-2-2-5-1z" fill="#787878"/>
<path transform="translate(1341,1260)" d="m0 0h2l2 4-1 9-4 8-5 1v-5l5-10zm0 9 1 2z" fill="#6D6D6D"/>
<path transform="translate(1352,1241)" d="m0 0 3 1 4 11 1 3 11 26-1 4-11-25-7-18z" fill="#787878"/>
<path transform="translate(755,623)" d="m0 0h11l23 4 4 1v3l-38-7z" fill="#434343"/>
<path transform="translate(1078,826)" d="m0 0 7 6 9 10 3 5h-3l-9-10-7-8z" fill="#303030"/>
<path transform="translate(682,642)" d="m0 0 2 1-7 9-4 2-4 3 2-4z" fill="#464646"/>
<path transform="translate(1182,824)" d="m0 0 1 3-7 14-4 1 2-4 6-11z" fill="#3F3F3F"/>
<path transform="translate(1381,1310)" d="m0 0 3 3 3 7 2 1v2l-9-1 4-2-3-7z" fill="#787878"/>
<path transform="translate(1249,1242)" d="m0 0 3 3 2 9 1 5-3-4-4-12z" fill="#787878"/>
<path transform="translate(913,1075)" d="m0 0m-1 1m-2 1h2l-1 3-14 8-2-1z" fill="#FEFEFE"/>
<path transform="translate(1341,1260)" d="m0 0h2l2 4v4h-2l-1 2-2-1z" fill="#787878"/>
<path transform="translate(770,625)" d="m0 0h9l6 1-3 2-10-1z" fill="#3E3E3E"/>
<path transform="translate(671,731)" d="m0 0h1l2 17-3-3-1-6z" fill="#787878"/>
<path transform="translate(1133,1245)" d="m0 0h6v1h-6z" fill="#787878"/>
<path transform="translate(1533,1245)" d="m0 0 3 1-3 1z" fill="#787878"/>
<path transform="translate(1487,1321)" d="m0 0 4 1z" fill="#787878"/>
<path transform="translate(699,1253)" d="m0 0 1 4z" fill="#787878"/>
<path transform="translate(1530,1281)" d="m0 0 2 1-2 1z" fill="#787878"/>
<path transform="translate(1345,1269)" d="m0 0" fill="#787878"/>
<path transform="translate(840,1269)" d="m0 0" fill="#787878"/>
<path transform="translate(839,1266)" d="m0 0" fill="#787878"/>
<path transform="translate(505,1252)" d="m0 0h2l-1 2z" fill="#787878"/>
<path transform="translate(1164,1321)" d="m0 0" fill="#787878"/>
<path transform="translate(621,1322)" d="m0 0 2 1z" fill="#787878"/>
<path transform="translate(699,1297)" d="m0 0" fill="#787878"/>
<path transform="translate(1416,1289)" d="m0 0" fill="#787878"/>
<path transform="translate(1455,1253)" d="m0 0" fill="#787878"/>
<path transform="translate(593,1322)" d="m0 0" fill="#787878"/>
<path transform="translate(1493,1321)" d="m0 0" fill="#787878"/>
<path transform="translate(1228,1319)" d="m0 0" fill="#787878"/>
<path transform="translate(506,1310)" d="m0 0" fill="#787878"/>
<path transform="translate(1242,1290)" d="m0 0" fill="#787878"/>
<path transform="translate(1418,1288)" d="m0 0" fill="#787878"/>
<path transform="translate(1528,1282)" d="m0 0" fill="#787878"/>
<path transform="translate(1533,1280)" d="m0 0" fill="#787878"/>
<path transform="translate(838,1264)" d="m0 0" fill="#787878"/>
<path transform="translate(1361,1257)" d="m0 0" fill="#787878"/>
<path transform="translate(1360,1255)" d="m0 0" fill="#787878"/>
<path transform="translate(908,1255)" d="m0 0" fill="#787878"/>
<path transform="translate(660,1253)" d="m0 0" fill="#787878"/>
<path transform="translate(1418,1247)" d="m0 0" fill="#787878"/>
<path transform="translate(1305,1239)" d="m0 0" fill="#787878"/>
<path transform="translate(1301,1237)" d="m0 0" fill="#787878"/>
<path transform="translate(1206,1033)" d="m0 0" fill="#FEFEFE"/>
</svg>
